0
SECTION
2
HEADER
9
$INSUNITS
70
4
9
$ACADVER
1
AC1014
9
$HANDSEED
5
FFFF
0
ENDSEC
0
SECTION
2
TABLES
0
TABLE
2
VPORT
5
8
100
AcDbSymbolTable
0
ENDTAB
0
TABLE
2
LTYPE
5
5
100
AcDbSymbolTable
0
LTYPE
5
14
100
AcDbSymbolTableRecord
100
AcDbLinetypeTableRecord
2
BYBLOCK
70
0
0
LTYPE
5
15
100
AcDbSymbolTableRecord
100
AcDbLinetypeTableRecord
2
BYLAYER
70
0
0
LTYPE
5
16
100
AcDbSymbolTableRecord
100
AcDbLinetypeTableRecord
2
DASHED
70
0
3
Dashed __ __ __ __ __ __ __ __ __ __ __ __ __ _
72
65
73
2
40
0.75
49
0.5
74
0
49
-0.25
74
0
0
ENDTAB
0
TABLE
2
LAYER
5
2
100
AcDbSymbolTable
70
2
0
LAYER
5
50
100
AcDbSymbolTableRecord
100
AcDbLayerTableRecord
2
0
70
0
62
7
6
CONTINUOUS
0
ENDTAB
0
TABLE
2
STYLE
5
3
100
AcDbSymbolTable
70
1
0
STYLE
5
11
100
AcDbSymbolTableRecord
100
AcDbTextStyleTableRecord
2
STANDARD
70
0
0
ENDTAB
0
TABLE
2
VIEW
5
6
100
AcDbSymbolTable
70
0
0
ENDTAB
0
TABLE
2
UCS
5
7
100
AcDbSymbolTable
70
0
0
ENDTAB
0
TABLE
2
APPID
5
9
100
AcDbSymbolTable
70
2
0
APPID
5
12
100
AcDbSymbolTableRecord
100
AcDbRegAppTableRecord
2
ACAD
70
0
0
ENDTAB
0
TABLE
2
DIMSTYLE
5
A
100
AcDbSymbolTable
70
1
0
ENDTAB
0
TABLE
2
BLOCK_RECORD
5
1
100
AcDbSymbolTable
70
1
0
BLOCK_RECORD
5
1F
100
AcDbSymbolTableRecord
100
AcDbBlockTableRecord
2
*MODEL_SPACE
0
BLOCK_RECORD
5
1B
100
AcDbSymbolTableRecord
100
AcDbBlockTableRecord
2
*PAPER_SPACE
0
ENDTAB
0
ENDSEC
0
SECTION
2
BLOCKS
0
BLOCK
5
20
100
AcDbEntity
100
AcDbBlockBegin
2
*MODEL_SPACE
0
ENDBLK
5
21
100
AcDbEntity
100
AcDbBlockEnd
0
BLOCK
5
1C
100
AcDbEntity
100
AcDbBlockBegin
2
*PAPER_SPACE
0
ENDBLK
5
1D
100
AcDbEntity
100
AcDbBlockEnd
0
ENDSEC
0
SECTION
2
ENTITIES
0
LWPOLYLINE
5
100
100
AcDbEntity
8
0
100
AcDbPolyline
90
14
70
1
43
0.0
10
6.1930597165693202
20
-51.480165488834501
42
0.17926378539011759
10
6.0000000000000151
20
-52.001340596019006
10
6.0000000000000133
20
-58.838310844815503
42
-0.69597339016007231
10
4.59305971656946
20
-59.359485951998501
10
2.2413246457108498
20
-56.620746647707712
42
-0.17926378538959709
10
2.0000000000004325
20
-55.9692777637283
10
2.0000000000000098
20
-46.023943479329006
42
-0.17926378539007595
10
2.2413246457117331
20
-45.37247459534791
10
4.9398053359582264
20
-42.229928812949893
42
-0.43661679191949315
10
6.1124310443406982
20
-42.185418495183711
10
7.6041255695454515
20
-43.677113020391296
42
-0.19891236737960374
10
7.8384401445963734
20
-44.242798445341109
10
7.8384401445946548
20
-49.267674100237997
42
-0.1792637853896514
10
7.6453804280262876
20
-49.788849207421421
0
LWPOLYLINE
5
101
100
AcDbEntity
8
0
100
AcDbPolyline
90
14
70
1
43
0.0
10
-6.1930597165680901
20
-51.4801654888347
10
-7.6453804280281705
20
-49.788849207423027
42
-0.17926378538965185
10
-7.8384401445971266
20
-49.267674100237997
10
-7.8384401445946352
20
-44.242798445341109
42
-0.19891236737960918
10
-7.6041255695442036
20
-43.677113020392497
10
-6.1124310443394672
20
-42.185418495185502
42
-0.43661679191965153
10
-4.9398053359598055
20
-42.229928812951286
10
-2.2413246457108675
20
-45.372474595348905
42
-0.17926378538973642
10
-1.9999999999999927
20
-46.023943479328999
10
-1.9999999999999865
20
-55.9692777637283
42
-0.17926378538959858
10
-2.2413246457105247
20
-56.620746647707996
10
-4.593059716567959
20
-59.359485951999787
42
-0.69597339016007553
10
-6.0000000000019638
20
-58.838310844815503
10
-5.9999999999992699
20
-52.001340596019006
42
0.17926378538981957
0
LWPOLYLINE
5
102
100
AcDbEntity
8
0
100
AcDbPolyline
90
14
70
1
43
0.0
10
-5.5149104376722304
20
-68.437577714748599
10
-0.75867535428141453
20
-62.898651104892409
42
-0.45939427720906978
10
0.7586753542959862
20
-62.898651104892409
10
5.5149104376869413
20
-68.4375777147485
42
-0.17926378538977172
10
5.7562350833979501
20
-69.0890465987288
10
5.7562350833977804
20
-74.373686312046701
42
-0.30162733767968886
10
5.1447321199158615
20
-75.295136284978852
10
1.9732174646669698
20
-76.632294113439002
42
-0.1000821478850101
10
1.5847204281490201
20
-76.710844140506822
10
-1.58472042813445
20
-76.71084414050722
42
-0.10008214788500192
10
-1.9732174646525364
20
-76.632294113439372
10
-5.1447321199011453
20
-75.295136284978497
42
-0.30162733767968214
10
-5.7562350833828111
20
-74.373686312046686
10
-5.7562350833831974
20
-69.0890465987288
42
-0.1792637853897763
0
LWPOLYLINE
5
103
100
AcDbEntity
8
0
100
AcDbPolyline
90
8
70
1
43
0.0
10
-5.3932337326184898
20
-19.221077238978303
10
-0.63664484781837816
20
-15.294176168443492
42
-0.35945136244586423
10
0.63664484781825093
20
-15.294176168443371
10
5.3932337326187074
20
-19.221077238978076
42
-0.36177496127568903
10
5.6303822597476998
20
-20.478531757027206
10
0.87379337494713516
20
-29.025310045514399
42
-0.58789942649485749
10
-0.87379337494693343
20
-29.025310045514733
10
-5.6303822597473996
20
-20.478531757027092
42
-0.3617749612757038
0
LWPOLYLINE
5
104
100
AcDbEntity
8
0
100
AcDbPolyline
90
8
70
1
43
0.0
10
9.8799999631592303
20
-69.187668823342278
42
1.0000000235608046
10
9.8799999989220098
20
-70.787668823341534
10
9.8799999999064312
20
-73.687651932736088
42
1.0000000235608046
10
9.8799999621747698
20
-75.287651932735301
10
12.999999999909102
20
-75.287651932735315
42
0.99999999999999989
10
12.999999999909003
20
-73.687651932736102
10
12.999999999909102
20
-70.787668823341534
42
0.99999999999999989
10
12.999999999909102
20
-69.187668823342193
0
LWPOLYLINE
5
105
100
AcDbEntity
8
0
100
AcDbPolyline
90
8
70
1
43
0.0
10
13.000000018360902
20
-61.70350134243953
42
0.99999999999999989
10
13.000000018360902
20
-60.103501342440289
10
13.000000018360902
20
-57.203518233045614
42
0.99999999999999989
10
13.000000018360902
20
-55.603518233046401
10
9.8799999816110393
20
-55.603518233046394
42
1.0000000235608046
10
9.8800000183619101
20
-57.203518233045607
10
9.8800000183582704
20
-60.103501342440289
42
1.0000000235608046
10
9.8799999816110393
20
-61.703501342439502
0
LWPOLYLINE
5
106
100
AcDbEntity
8
0
100
AcDbPolyline
90
8
70
1
43
0.0
10
-12.999999999909003
20
-73.687651932736102
10
-12.999999999909003
20
-70.787668823341534
42
-0.99999999999999989
10
-12.999999999909003
20
-69.187668823342278
10
-9.8799999631591877
20
-69.187668823342307
42
-1.000000022351742
10
-9.8799999989220009
20
-70.787668823341534
10
-9.8800000018409158
20
-73.687651932736088
42
-1.0000000235608046
10
-9.8799999621747503
20
-75.287651932735315
10
-12.999999999909011
20
-75.287651932735301
42
-0.99999999999999989
0
LWPOLYLINE
5
107
100
AcDbEntity
8
0
100
AcDbPolyline
90
8
70
1
43
0.0
10
-9.8799999816110304
20
-61.70350134243953
42
1.000000022351742
10
-9.8800000173738152
20
-60.103501342440289
10
-9.8800000183618906
20
-57.203518233045614
42
1.0000000235608046
10
-9.8799999816110304
20
-55.603518233046401
10
-13.000000018360902
20
-55.603518233046394
42
0.99999999999999989
10
-13.000000018360902
20
-57.203518233045607
10
-13.000000018360902
20
-60.103501342440289
42
0.99999999999999989
10
-13.000000018360902
20
-61.703501342439502
0
CIRCLE
5
108
100
AcDbEntity
8
0
100
AcDbCircle
10
10.539278424192203
20
7.7873557245941409
30
0
40
1.5000000000000002
210
0
220
-0
230
1
0
CIRCLE
5
109
100
AcDbEntity
8
0
100
AcDbCircle
10
-10.539278424301299
20
7.7873557245941409
30
0
40
1.5000000000000002
210
0
220
-0
230
1
0
CIRCLE
5
110
100
AcDbEntity
8
0
100
AcDbCircle
10
10.539278424192203
20
-7.7873557245377398
30
0
40
1.5000000000000002
210
0
220
-0
230
1
0
CIRCLE
5
111
100
AcDbEntity
8
0
100
AcDbCircle
10
-10.539278424301299
20
-7.7873557245377398
30
0
40
1.5000000000000002
210
0
220
-0
230
1
0
CIRCLE
5
112
100
AcDbEntity
8
0
100
AcDbCircle
10
16.482458408103401
20
-51.268002974563501
30
0
40
1.5000000000000002
210
0
220
-0
230
1
0
CIRCLE
5
113
100
AcDbEntity
8
0
100
AcDbCircle
10
-16.482458408023401
20
-51.268002974563501
30
0
40
1.5000000000000002
210
0
220
-0
230
1
0
CIRCLE
5
114
100
AcDbEntity
8
0
100
AcDbCircle
10
29.4857827088927
20
21.786717223824304
30
-4.9303806576313238e-31
40
2.1499999999999999
210
0
220
-0
230
1
0
CIRCLE
5
115
100
AcDbEntity
8
0
100
AcDbCircle
10
29.485782708907205
20
-21.786717223803201
30
0
40
2.1499999999999999
210
0
220
-0
230
1
0
CIRCLE
5
116
100
AcDbEntity
8
0
100
AcDbCircle
10
15.342082415409102
20
-26.619343890331901
30
0
40
1.5000000000000002
210
0
220
-0
230
1
0
CIRCLE
5
117
100
AcDbEntity
8
0
100
AcDbCircle
10
-29.485782708889001
20
21.786717223824304
30
0
40
2.1499999999999999
210
0
220
-0
230
1
0
CIRCLE
5
118
100
AcDbEntity
8
0
100
AcDbCircle
10
-29.485782708907205
20
-21.786717223803201
30
0
40
2.1499999999999999
210
0
220
-0
230
1
0
CIRCLE
5
119
100
AcDbEntity
8
0
100
AcDbCircle
10
-15.342082415409102
20
-26.619343890331901
30
0
40
1.5000000000000002
210
0
220
-0
230
1
0
LWPOLYLINE
5
120
100
AcDbEntity
8
0
100
AcDbPolyline
90
76
70
1
43
0.0
10
27.635838112792612
20
28.081750417861059
42
0.11426129803058109
10
26.291666294616604
20
27.787401413823837
10
7.3421457830609294
20
18.794128949211121
42
-0.094050269376253701
10
3.7342370753976017
20
17.85145797882447
42
-0.034021565427692919
10
-3.7342370753899692
20
17.851457978817876
42
-0.094050269376633175
10
-7.3421457830704684
20
18.794128949197727
10
-26.291666294720063
20
27.787401413824362
42
0.11426129802710613
10
-27.635838112854625
20
28.081750417860306
42
-0.0029892642631783287
10
-27.6956217954721
20
28.081392996214937
10
-29.337348485714703
20
28.081392996224402
42
0.23795565728824025
10
-33.358693439440643
20
26.052720100923558
10
-35.149148225511397
20
23.629548210005204
42
0.39909022274963252
10
-34.303778217217783
20
16.796462031264522
10
-19.827932196396404
20
4.8912852984171904
42
-0.22428505454466252
10
-18.003907141835928
20
1.029526224375112
10
-18.003907141835892
20
-1.0295262243750996
42
-0.2242850545446709
10
-19.827932196400063
20
-4.8912852984172241
10
-34.303778217221399
20
-16.796462031263701
42
0.39909022274963002
10
-35.149148225507815
20
-23.629548210004906
10
-33.358693439444302
20
-26.052720100923601
42
0.2379556572882412
10
-29.337348485714703
20
-28.081392996224363
10
-23.566708872644103
20
-28.081392996224412
42
-0.1989123673796887
10
-20.031174966708925
20
-29.545859090291621
10
-16.585786437626648
20
-32.991247619380147
42
-0.19891236737962475
10
-15.999999999999989
20
-34.405461181753097
10
-16.000000000000011
20
-43.597219737736097
42
-0.19891236737967924
10
-16.585786437626613
20
-45.011433300109488
10
-19.823054799529899
20
-48.248701662010802
42
0.19891236737964393
10
-20.408841237156601
20
-49.66291522438371
10
-20.408841237156601
20
-52.873090724741004
42
0.19891236737963439
10
-19.823054799529896
20
-54.287304287113898
10
-16.585786437630315
20
-57.524572649004412
42
-0.19891236738005652
10
-15.999999999999954
20
-58.938786211379004
10
-16
20
-79.735266416104395
42
0.32282420489892172
10
-15.316222958761506
20
-80.683951316559828
10
-13.716645344360535
20
-81.217134848573934
42
-0.28491521426305083
10
-12.999999994423003
20
-80.772689961657122
10
-9.8799999993716394
20
-80.772689959353869
42
-0.99999999999999989
10
-9.8799999993716607
20
-82.37268995935672
10
-9.8800000005248805
20
-82.955331862483405
10
-5.9997301759140012
20
-84.054297393117409
42
0.06910745973351505
10
-5.4547289768379317
20
-84.12998616750842
10
5.4547289768379503
20
-84.129986167508406
42
0.069107459733506751
10
5.9997301759140278
20
-84.054297393117437
10
9.8800000005248894
20
-82.955331862483405
10
9.8799999993716998
20
-82.37268995935672
42
-0.99999999999999989
10
9.8799999993716607
20
-80.772689959353869
10
12.999999994423002
20
-80.772689961657136
42
-0.28491521426305899
10
13.716645344360618
20
-81.21713484857392
10
15.3162229587615
20
-80.683951316559813
42
0.32282420489891833
10
16
20
-79.735266416104409
10
15.999999999999952
20
-58.938786211379011
42
-0.1989123673800563
10
16.585786437630318
20
-57.524572649004412
10
19.823054799529899
20
-54.287304287113898
42
0.19891236737964571
10
20.408841237156665
20
-52.873090724741004
10
20.408841237156601
20
-49.66291522438371
42
0.19891236737964771
10
19.823054799529903
20
-48.248701662010802
10
16.585786437626663
20
-45.011433300109545
42
-0.19891236737969054
10
16.000000000000011
20
-43.597219737736097
10
16.000000000000011
20
-34.405461181753097
42
-0.198912367379634
10
16.585786437626712
20
-32.991247619380111
10
20.031174966708967
20
-29.545859090291668
42
-0.19891236737968834
10
23.566708872644103
20
-28.081392996224416
10
29.337348485714799
20
-28.081392996224402
42
0.23795565728823598
10
33.358693439444295
20
-26.052720100923594
10
35.149148225507801
20
-23.629548210004899
42
0.3990902227496293
10
34.303778217221399
20
-16.796462031263705
10
19.827932196400106
20
-4.8912852984171771
42
-0.22428505454466718
10
18.003907141835988
20
-1.0295262243750991
10
18.003907141835921
20
1.0295262243751104
42
-0.22428505454466321
10
19.827932196396397
20
4.8912852984171975
10
34.303778217217797
20
16.796462031264497
42
0.39909022274962846
10
35.149148225511439
20
23.629548210005154
10
33.3586934394407
20
26.052720100923601
42
0.23795565728823481
10
29.337348485714799
20
28.081392996224398
10
27.695621795472078
20
28.081392996214944
42
-0.0029892642662935312
0
ENDSEC
0
SECTION
2
OBJECTS
0
DICTIONARY
5
C
100
AcDbDictionary
3
ACAD_GROUP
350
D
3
ACAD_MLINESTYLE
350
17
0
DICTIONARY
5
D
100
AcDbDictionary
0
DICTIONARY
5
1A
330
C
100
AcDbDictionary
0
DICTIONARY
5
17
100
AcDbDictionary
0
ENDSEC
0
EOF
