0
SECTION
2
HEADER
9
$INSUNITS
70
4
9
$ACADVER
1
AC1014
9
$HANDSEED
5
FFFF
0
ENDSEC
0
SECTION
2
TABLES
0
TABLE
2
VPORT
5
8
100
AcDbSymbolTable
0
ENDTAB
0
TABLE
2
LTYPE
5
5
100
AcDbSymbolTable
0
LTYPE
5
14
100
AcDbSymbolTableRecord
100
AcDbLinetypeTableRecord
2
BYBLOCK
70
0
0
LTYPE
5
15
100
AcDbSymbolTableRecord
100
AcDbLinetypeTableRecord
2
BYLAYER
70
0
0
LTYPE
5
16
100
AcDbSymbolTableRecord
100
AcDbLinetypeTableRecord
2
DASHED
70
0
3
Dashed __ __ __ __ __ __ __ __ __ __ __ __ __ _
72
65
73
2
40
0.75
49
0.5
74
0
49
-0.25
74
0
0
ENDTAB
0
TABLE
2
LAYER
5
2
100
AcDbSymbolTable
70
2
0
LAYER
5
50
100
AcDbSymbolTableRecord
100
AcDbLayerTableRecord
2
0
70
0
62
7
6
CONTINUOUS
0
ENDTAB
0
TABLE
2
STYLE
5
3
100
AcDbSymbolTable
70
1
0
STYLE
5
11
100
AcDbSymbolTableRecord
100
AcDbTextStyleTableRecord
2
STANDARD
70
0
0
ENDTAB
0
TABLE
2
VIEW
5
6
100
AcDbSymbolTable
70
0
0
ENDTAB
0
TABLE
2
UCS
5
7
100
AcDbSymbolTable
70
0
0
ENDTAB
0
TABLE
2
APPID
5
9
100
AcDbSymbolTable
70
2
0
APPID
5
12
100
AcDbSymbolTableRecord
100
AcDbRegAppTableRecord
2
ACAD
70
0
0
ENDTAB
0
TABLE
2
DIMSTYLE
5
A
100
AcDbSymbolTable
70
1
0
ENDTAB
0
TABLE
2
BLOCK_RECORD
5
1
100
AcDbSymbolTable
70
1
0
BLOCK_RECORD
5
1F
100
AcDbSymbolTableRecord
100
AcDbBlockTableRecord
2
*MODEL_SPACE
0
BLOCK_RECORD
5
1B
100
AcDbSymbolTableRecord
100
AcDbBlockTableRecord
2
*PAPER_SPACE
0
ENDTAB
0
ENDSEC
0
SECTION
2
BLOCKS
0
BLOCK
5
20
100
AcDbEntity
100
AcDbBlockBegin
2
*MODEL_SPACE
0
ENDBLK
5
21
100
AcDbEntity
100
AcDbBlockEnd
0
BLOCK
5
1C
100
AcDbEntity
100
AcDbBlockBegin
2
*PAPER_SPACE
0
ENDBLK
5
1D
100
AcDbEntity
100
AcDbBlockEnd
0
ENDSEC
0
SECTION
2
ENTITIES
0
LWPOLYLINE
5
100
100
AcDbEntity
8
0
100
AcDbPolyline
90
10
70
1
43
0.0
10
2.7716555492166783
20
17.828335404155901
10
-2.7716555492159634
20
17.828335404155901
42
-0.17426755926181389
10
-4.4269321535432162
20
18.423326834805923
10
-5.393233732618512
20
19.221077238978204
42
-0.36177496127570247
10
-5.6303822597474253
20
20.478531757027
10
-0.87379337494744913
20
29.025310045514395
42
-0.58789942649485272
10
0.87379337494725928
20
29.025310045514708
10
5.6303822597476643
20
20.478531757026811
42
-0.36177496127570996
10
5.3932337326186293
20
19.221077238977646
10
4.4269321535437571
20
18.423326834805781
42
-0.17426755926179249
0
LWPOLYLINE
5
101
100
AcDbEntity
8
0
100
AcDbPolyline
90
10
70
1
43
0.0
10
-6.3861188305454313
20
66.386371614877049
42
0.46273887315911172
10
-4.8616060694704473
20
66.389109067123741
10
-3.4924328286433548
20
68.007387274490185
42
0.36729804389550758
10
-3.4947573460008075
20
69.301932733054329
10
-4.7062466481329306
20
70.723453634726411
42
0.27592108673580612
10
-5.6776498547695393
20
71.05244712594434
10
-7.4178220697212973
20
70.678100825060156
42
0.35342896605574275
10
-8.2075129849434347
20
69.700465878440696
10
-8.2075129849472468
20
68.891851721193007
42
0.1783038370613082
10
-7.9686071068074904
20
68.243210265784001
0
CIRCLE
5
102
100
AcDbEntity
8
0
100
AcDbCircle
10
-15.342082415412701
20
26.619343890330605
30
0
40
1.4999999999999991
210
0
220
-0
230
1
0
LWPOLYLINE
5
103
100
AcDbEntity
8
0
100
AcDbPolyline
90
10
70
1
43
0.0
10
3.4947573460158128
20
69.301932733032217
42
0.36729804389754089
10
3.4924328286610078
20
68.007387274461749
10
4.8616060694912111
20
66.389109067106574
42
0.46273887315609219
10
6.3861188305576864
20
66.386371614864586
10
7.9686071068208753
20
68.243210265752865
42
0.17830383706084088
10
8.2075129849622304
20
68.891851721159796
10
8.2075129849617898
20
69.700465878407499
42
0.35342896605582186
10
7.4178220697431865
20
70.678100825030427
10
5.677649854791504
20
71.052447125922299
42
0.2759210867355027
10
4.7062466481535603
20
70.723453634708505
0
LWPOLYLINE
5
104
100
AcDbEntity
8
0
100
AcDbPolyline
90
8
70
1
43
0.0
10
-2.2600282062085308
20
47.5335140952728
42
0.18656233415745557
10
-2.0000000000043068
20
48.206151995179397
10
-2.0000000000109228
20
56.660770042459703
42
0.17830383706087372
10
-2.2389058781518822
20
57.30941149786662
10
-5.2389058781555295
20
60.829510847881387
42
0.69735507692894372
10
-7.0000000000155715
20
60.180869392472609
10
-7.0000000000000719
20
44.905839328155899
42
0.68554145233365216
10
-5.2600282062056491
20
44.233201428251697
0
CIRCLE
5
105
100
AcDbEntity
8
0
100
AcDbCircle
10
12.750000000000002
20
59.795370454785406
30
0
40
0.84999999999999964
210
0
220
-0
230
1
0
CIRCLE
5
106
100
AcDbEntity
8
0
100
AcDbCircle
10
12.750000000000002
20
34.295370454785399
30
0
40
0.84999999999999964
210
0
220
-0
230
1
0
CIRCLE
5
107
100
AcDbEntity
8
0
100
AcDbCircle
10
9.9999999999999893
20
57.045370454785399
30
0
40
1.0999999999999999
210
0
220
-0
230
1
0
LWPOLYLINE
5
108
100
AcDbEntity
8
0
100
AcDbPolyline
90
10
70
1
43
0.0
10
-0.77607141978661387
20
67.573305638367515
42
0.22062604648619311
10
-1.53949005900442
20
67.219209641524984
10
-3.7591144253239799
20
64.595750729633721
42
0.36729804389523257
10
-3.7567899079668199
20
63.30120527107033
10
-0.7610941218754641
20
59.786156341229841
42
0.46164926847701659
10
0.76109412185477066
20
59.786156341214117
10
3.7567899079768119
20
63.301205271071375
42
0.36729804389818255
10
3.7591144253329869
20
64.59575072963986
10
1.5394900589890437
20
67.219209641527215
42
0.2206260464844064
10
0.77607141977567906
20
67.573305638364502
0
CIRCLE
5
109
100
AcDbEntity
8
0
100
AcDbCircle
10
-12.750000000000002
20
59.795370454785406
30
0
40
0.84999999999999964
210
0
220
-0
230
1
0
CIRCLE
5
110
100
AcDbEntity
8
0
100
AcDbCircle
10
-11.500000000000002
20
69.284501492762502
30
0
40
1.5000000000000013
210
0
220
-0
230
1
0
CIRCLE
5
111
100
AcDbEntity
8
0
100
AcDbCircle
10
-10
20
57.045370454785399
30
0
40
1.100000000000001
210
0
220
-0
230
1
0
LWPOLYLINE
5
112
100
AcDbEntity
8
0
100
AcDbPolyline
90
8
70
1
43
0.0
10
2.2389058781409368
20
57.309411497869
42
0.1783038370610793
10
1.9999999999999905
20
56.660770042461301
10
1.9999999999999885
20
48.20615199518101
42
0.1865623341573388
10
2.2600282062046428
20
47.533514095274477
10
5.2600282062048889
20
44.233201428253821
42
0.68554145233386188
10
7.0000000000014806
20
44.905839328160297
10
7.0000000000006715
20
60.180869392478009
42
0.69735507692886267
10
5.2389058781409306
20
60.829510847885508
0
CIRCLE
5
113
100
AcDbEntity
8
0
100
AcDbCircle
10
15.342082415409102
20
26.619343890330605
30
0
40
1.5000000000000013
210
0
220
-0
230
1
0
CIRCLE
5
114
100
AcDbEntity
8
0
100
AcDbCircle
10
-10
20
37.045370454785399
30
0
40
1.100000000000001
210
0
220
-0
230
1
0
CIRCLE
5
115
100
AcDbEntity
8
0
100
AcDbCircle
10
11.500000000000002
20
69.284501492762502
30
0
40
1.5000000000000013
210
0
220
-0
230
1
0
CIRCLE
5
116
100
AcDbEntity
8
0
100
AcDbCircle
10
-12.750000000000002
20
34.295370454785399
30
0
40
0.84999999999999964
210
0
220
-0
230
1
0
CIRCLE
5
117
100
AcDbEntity
8
0
100
AcDbCircle
10
9.9999999999999893
20
37.045370454785399
30
0
40
1.0999999999999999
210
0
220
-0
230
1
0
LWPOLYLINE
5
118
100
AcDbEntity
8
0
100
AcDbPolyline
90
42
70
1
43
0.0
10
23.41005770575055
20
30.493827580739762
42
0.29517182830513955
10
28.153601865076709
20
28.46602630962558
42
-0.28336687800374288
10
33.021193402127501
20
26.5094870687069
10
34.824436346512584
20
24.069007895852586
42
-0.34931431973705618
10
34.601725733761597
20
17.8464691487845
10
24.892474809803879
20
6.5024232847048395
42
0.36951321266139991
10
24.892474809787505
20
-6.5024232847752899
10
34.601725733709316
20
-17.846469148874579
42
-0.3493143197372931
10
34.824436346446497
20
-24.069007895946498
10
33.021193402058152
20
-26.509487068795639
42
-0.35868361205586741
10
26.8560717733126
20
-28.055263191563405
10
7.3421457830154226
20
-18.79412894921596
42
0.11123404097676773
10
3.0545924329744607
20
-17.828335404160001
10
-3.0545924330217527
20
-17.828335404156004
42
0.11123404097656422
10
-7.3421457830554608
20
-18.794128949208499
10
-26.856071773355801
20
-28.055263191525796
42
-0.35868361205602528
10
-33.0211934021019
20
-26.509487068751405
10
-34.824436346486692
20
-24.069007895899894
42
-0.34931431973724936
10
-34.601725733742001
20
-17.846469148828898
10
-24.892474809805528
20
-6.5024232847441743
42
0.36951321266172171
10
-24.892474809807801
20
6.5024232847445607
10
-34.601725733743407
20
17.846469148829996
42
-0.34931431973712151
10
-34.824436346486806
20
24.069007895899301
10
-33.021193402100984
20
26.509487068752495
42
-0.28336687800343274
10
-28.153601865052742
20
28.466026309664429
42
0.29517182830526201
10
-23.410057705724508
20
30.493827580778266
10
-18.706084410212512
20
37.47729105483711
42
0.14928913664873228
10
-17.000000000043634
20
43.063968438465103
10
-17.000000000043688
20
67.648066191426594
42
-0.33827308896116348
10
-13.314551665898801
20
72.47216755000079
10
-6.7094100436333992
20
74.272046797424665
42
-0.29054374760207935
10
-3.6373966785468292
20
73.323510348503589
10
-1.166858880620564
20
70.424664182955894
42
0.21968471975066528
10
-0.40576475876151546
20
70.073305638364019
10
0.40576475876149787
20
70.073305638364019
42
0.21968471975066578
10
1.1668588806205482
20
70.424664182955894
10
3.637396678546807
20
73.323510348503589
42
-0.29054374760207935
10
6.7094100436333797
20
74.272046797424665
10
13.314551665898794
20
72.47216755000079
42
-0.3382730889611591
10
17.000000000043595
20
67.648066191426594
10
17.000000000043634
20
43.063968438465096
42
0.14928913664873233
10
18.706084410212512
20
37.47729105483711
0
CIRCLE
5
119
100
AcDbEntity
8
0
100
AcDbCircle
10
15.342082415409102
20
15.250000000000002
30
0
40
1.5000000000000002
210
0
220
-0
230
1
0
CIRCLE
5
120
100
AcDbEntity
8
0
100
AcDbCircle
10
-15.342082415409102
20
-15.250000000000002
30
0
40
1.5000000000000002
210
0
220
-0
230
1
0
CIRCLE
5
121
100
AcDbEntity
8
0
100
AcDbCircle
10
-29.485782708867205
20
-21.786717223803599
30
0
40
1.5000000000000002
210
0
220
-0
230
1
0
CIRCLE
5
122
100
AcDbEntity
8
0
100
AcDbCircle
10
15.342082415409102
20
-15.250000000000002
30
0
40
1.5000000000000002
210
0
220
-0
230
1
0
CIRCLE
5
123
100
AcDbEntity
8
0
100
AcDbCircle
10
29.485782708870801
20
-21.786717223803599
30
0
40
1.5000000000000002
210
0
220
-0
230
1
0
CIRCLE
5
124
100
AcDbEntity
8
0
100
AcDbCircle
10
29.485782708870801
20
21.786717223803599
30
0
40
1.5000000000000002
210
0
220
-0
230
1
0
CIRCLE
5
125
100
AcDbEntity
8
0
100
AcDbCircle
10
-29.485782708867205
20
21.786717223803599
30
0
40
1.5000000000000002
210
0
220
-0
230
1
0
CIRCLE
5
126
100
AcDbEntity
8
0
100
AcDbCircle
10
10
20
-10
30
0
40
1
210
0
220
-0
230
1
0
CIRCLE
5
127
100
AcDbEntity
8
0
100
AcDbCircle
10
-15.342082415409102
20
15.250000000000002
30
0
40
1.5000000000000002
210
0
220
-0
230
1
0
CIRCLE
5
128
100
AcDbEntity
8
0
100
AcDbCircle
10
-10
20
-10
30
0
40
1
210
0
220
-0
230
1
0
CIRCLE
5
129
100
AcDbEntity
8
0
100
AcDbCircle
10
-10
20
10
30
0
40
1
210
0
220
-0
230
1
0
CIRCLE
5
130
100
AcDbEntity
8
0
100
AcDbCircle
10
10
20
10
30
0
40
1
210
0
220
-0
230
1
0
ENDSEC
0
SECTION
2
OBJECTS
0
DICTIONARY
5
C
100
AcDbDictionary
3
ACAD_GROUP
350
D
3
ACAD_MLINESTYLE
350
17
0
DICTIONARY
5
D
100
AcDbDictionary
0
DICTIONARY
5
1A
330
C
100
AcDbDictionary
0
DICTIONARY
5
17
100
AcDbDictionary
0
ENDSEC
0
EOF
